<?xml version="1.0" encoding="UTF-8" standalone="no"?>
<svg
   version="1.1"
   width="1188.0519"
   height="442.99966"
   id="svg91"
   sodipodi:docname="logo2.svg"
   inkscape:version="1.4.2 (f4327f4, 2025-05-13)"
   xmlns:inkscape="http://www.inkscape.org/namespaces/inkscape"
   xmlns:sodipodi="http://sodipodi.sourceforge.net/DTD/sodipodi-0.dtd"
   xmlns="http://www.w3.org/2000/svg"
   xmlns:svg="http://www.w3.org/2000/svg">
  <defs
     id="defs91" />
  <sodipodi:namedview
     id="namedview91"
     pagecolor="#505050"
     bordercolor="#eeeeee"
     borderopacity="1"
     inkscape:showpageshadow="0"
     inkscape:pageopacity="0"
     inkscape:pagecheckerboard="0"
     inkscape:deskcolor="#505050"
     inkscape:zoom="0.41073326"
     inkscape:cx="954.39069"
     inkscape:cy="281.2044"
     inkscape:window-width="1920"
     inkscape:window-height="991"
     inkscape:window-x="-9"
     inkscape:window-y="-9"
     inkscape:window-maximized="1"
     inkscape:current-layer="svg91" />
  <path
     id="path2"
     d="m 10.550983,149.93751 1.291873,2.14123 1.50656,2.52803 1.632436,2.72341 c 3.940499,7.02185 7.93385,13.67667 12.733696,20.06806 2.35311,3.0444 5.071949,5.83502 5.271162,9.94024 l -1.895252,2.00055 c -6.191009,5.97485 -10.565976,13.26467 -14.645593,20.94916 l -1.108652,2.11972 c -7.0724184,13.03935 -12.7668834,34.85141 -13.0807684,57.16286 -0.386712,27.48815 5.975156,55.5767 10.8485664,67.04725 0.625691,1.25417 1.251278,2.50844 1.87674,3.76275 11.549881,23.76078 31.690587,37.17278 54.758607,46.75901 1.64145,0.67581 3.28155,1.35678 4.90839,2.07089 9.78599,4.33815 19.68753,8.22576 29.750222,11.7845 l 1.85081,0.65254 c 7.08865,2.5143 14.18303,4.88983 21.41409,6.90033 3.00378,0.82562 6.0079,1.63856 8.99317,2.53586 17.36751,5.45526 35.15002,9.07103 52.98551,12.37256 l 3.49252,0.63494 c 18.50752,3.45613 37.19666,5.47698 55.98754,5.66758 l 2.09515,0.0176 c 5.65241,0.046 11.30472,0.0636 16.95728,0.0665 16.36803,-0.006 33.43229,-1.2694 49.09877,4.56376 11.29113,5.42749 21.31395,5.7099 33.56664,5.62265 2.23714,-0.0179 4.47387,-0.0276 6.71109,-0.0293 4.69596,0.004 9.3926,5.9e-4 14.08851,-0.0254 6.0728,-0.0405 12.14477,-0.0704 18.21769,-0.0645 4.76187,0.006 9.52285,0.004 14.28469,-0.01 2.27321,-0.008 4.54711,-0.0163 6.8203,-0.0234 3.24861,10e-4 6.49608,-1.3e-4 9.74462,-0.0234 l 2.99279,-0.0254 c 5.07568,0.0162 9.60522,6e-4 14.40128,-1.89896 21.29132,-7.38986 99.56457,-20.67625 134.80345,-35.46729 36.73287,-15.41811 29.45195,-31.28498 0.18302,15.80365 -1.89645,4.48766 1.03368,10.46113 2.49155,15.07766 5.10202,8.47071 146.62309,2.77416 152.3284,0.2704 l 3.30002,-1.45744 c 5.9998,-2.59067 11.79199,-5.05626 17.12757,-8.98685 4.20986,-3.37104 8.528,-4.58949 13.77387,-5.05414 l 3.3574,-0.0566 c 1.87659,-0.0453 3.75346,-0.0911 5.63023,-0.12503 5.40392,-0.0892 10.80376,-0.16145 16.1984,-0.5314 14.40151,-2.32854 14.40198,-2.32878 33.13169,-27.81238 1.99085,-2.71616 3.99242,-5.4129 6.04669,-8.07646 11.18954,-14.2858 22.37227,-28.92397 30.47198,-45.44614 1.43707,-3.0346 2.76024,-5.98251 4.82701,-8.60785 1.3027,-1.28567 1.3027,-1.28567 3.2278,-1.08232 6.09303,9.14344 6.09256,9.14344 11.50112,18.78057 5.80686,10.10455 11.74713,19.65603 18.98574,28.70715 2.62701,3.27173 5.21506,6.57145 7.77347,9.90313 1.85581,2.42447 3.70567,4.84038 5.69312,7.1465 5.56617,6.34474 10.40335,12.67131 14.47727,20.20871 l 1.38802,2.65309 c 2.40595,4.58016 4.59278,8.92171 5.73764,14.04294 1.67521,10.23158 12.53637,12.33637 20.98277,12.20455 27.8402,-2.31213 59.45055,3.07575 86.87605,-0.61548 2.8128,-1.60633 2.8128,-1.60633 5.9819,-6.12669 2.213,-4.39401 1.9753,-8.18437 0.6514,-12.87856 -3.9248,-9.46637 -13.9443,-14.68614 -22.5061,-18.50511 -15.9608,-7.05144 -27.01765,-13.10767 -34.39935,-30.37365 l -0.8996,-2.13535 c -1.0499,-2.48648 -2.0907,-4.9752 -3.1167,-7.47277 l -1.0291,-2.52998 c -2.0429,-4.99077 -3.8027,-9.54693 -4.3828,-15.00415 3.6656,-0.16121 6.4595,-0.0453 10.05,0.89087 3.735,1.02765 7.4782,1.79953 11.27885,2.5046 l 2.6579,0.4806 c 7.2145,1.31901 14.4384,2.52223 21.6842,3.63186 8.2229,1.25321 16.4352,2.52241 24.6087,4.10073 l 2.6282,0.51969 2.4801,0.48059 2.2839,0.46498 c 2.0716,0.41904 3.834,0.93506 5.7802,1.80128 6.5368,4.02671 10.6054,11.79499 12.9317,19.13419 0.5155,1.72485 1.044,3.44454 1.5825,5.16158 l 0.8495,2.69216 c 1.1758,3.76552 2.4521,7.4607 3.8311,11.14761 2.654,7.09493 4.6386,14.24958 6.4484,21.63489 1.4221,6.12767 2.5709,11.44587 6.5149,16.37952 10.1578,8.67528 81.7434,4.70962 84.2942,2.12754 1.9543,-4.19111 1.5295,-8.5914 0.9919,-13.13058 -2.3329,-7.73956 -2.3329,-7.73956 -19.1302,-19.06777 -1.4991,-1.00395 -2.9934,-2.01576 -4.4825,-3.03601 -17.8496,-26.91905 -17.8492,-26.91868 -22.5339,-61.19659 -1.3433,-7.05737 -2.5004,-14.17165 -4.6808,-21.00581 l -1.292,-3.72368 c -3.0026,-11.47121 -7.8097,-20.59846 -16.8794,-28.00775 -2.8768,-2.12397 -5.3244,-4.32264 -7.7587,-7.00193 4.0375,-0.47499 7.346,-1.60277 10.9995,-3.47754 l 1.9118,-1.02369 c 5.1524,-2.72082 9.7176,-5.71557 14.2736,-9.44012 2.3684,-2.06139 4.4545,-3.78376 7.2442,-5.13033 4.2848,0.79552 4.2858,0.79601 7.9455,3.49119 3.1933,2.32658 6.4791,4.48355 9.7781,6.63856 l 2.691,1.75244 c 5.124,3.47702 9.4691,6.55992 15.7025,6.70106 4.4589,-0.19655 7.1224,-1.4446 10.2387,-4.82553 2.3351,-3.98073 2.3351,-3.98073 2.0174,-13.50765 -1.2762,-11.3187 -1.2762,-11.3187 -18.3639,-26.19083 -2.8034,-2.13725 -5.453,-4.09826 -7.581,-7.00193 -0.3921,-2.40452 -0.1281,-4.13969 0.3443,-6.52525 5.0505,-20.73546 3.4069,-41.6995 -4.7863,-61.18096 -2.364,-5.57099 -3.725,-10.44704 -3.9682,-16.56707 -0.046,-3.12601 -0.021,-6.12848 -0.5034,-9.2135 l -0.5626,-2.53976 c -4.3448,-21.84616 -14.3662,-44.32808 -30.7386,-59.141343 -1.8718,-1.578866 -3.6684,-3.162334 -5.4265,-4.88417 -16.9146,-16.691283 -36.3905,-27.163066 -58.4123,-34.345422 -1.6469,-0.532516 -3.2888,-1.082538 -4.9231,-1.656708 -4.892,-2.39085 -9.1271,-3.608886 -14.4383,-4.331276 l -2.9742,-0.357519 c -13.2634,-1.636602 -27.3007,-2.778158 -40.59255,-0.796901 l -2.6429,0.484515 v -2.000553 c -6.0383,-4.249125 -6.0376,-4.249614 -33.1465,-12.108816 l -3.574,-1.019813 c -4.0385,-1.169172 -8.0829,-2.277219 -12.1562,-3.3036523 L 938.9151,9.2894636 C 923.88889,5.5048877 909.62962,3.5623107 894.1807,3.678583 806.35291,4.3786563 916.55663,3.3430202 707.73379,4.0712715 c -2.28666,0.00901 -4.57436,0.015504 -6.86102,0.023407 C 670.79453,2.1643448 648.45043,19.527502 628.44985,40.923256 l -1.66389,1.867696 -1.57134,1.734859 c -1.31783,1.565783 -1.31783,1.565783 -2.80587,2.774207 -2.29662,0.997435 -3.32126,1.181047 -5.67092,0.279368 l -2.01001,-1.201504 -2.31167,-1.342169 C 588.34332,30.742682 562.05654,18.893368 534.86838,13.337263 532.26111,12.825101 529.65466,12.31406 527.05419,11.764568 390.9504,-17.158216 -53.099279,17.545826 10.550983,149.93751 Z M 986.29655,56.302266 c 5.6046,11.059366 8.8744,22.795519 11.3714,35.009675 l 0.5663,2.766385 c 3.12695,15.836414 3.72315,31.113334 3.22425,47.247434 -0.031,1.58377 -0.062,3.16755 -0.092,4.75132 -0.2843,9.8956 -1.98455,19.29864 -4.12545,28.92011 -0.5074,2.28483 -0.9957,4.5725 -1.4789,6.86321 -1.6113,7.54767 -3.4485,14.94822 -5.682,22.32257 -0.9774,3.28646 -1.8508,6.59196 -2.717,9.91291 -9.8643,36.46395 -9.8643,36.46395 -19.9111,43.15646 -17.7582,9.80549 -38.74173,6.67062 -58.14938,4.73176 l -1.95827,-0.19145 c -6.71467,-0.66853 -13.09473,-1.56757 -19.59989,-3.43454 -9.87661,-1.30318 -15.70394,2.91983 -23.39447,8.87745 -16.73457,12.96224 -36.20208,18.84859 -56.79082,15.58634 -7.88963,-2.12693 -14.8631,-5.99378 -22.11746,-9.80935 -94.57211,-12.50817 -156.04004,-74.40181 -157.90199,-178.652897 -0.13244,-17.130214 5.83934,-29.464172 17.02021,-41.808424 4.28123,-4.341429 8.86042,-7.889069 13.85901,-11.25311 l 2.56155,-1.777841 c 25.05622,-16.512194 56.0416,-16.868742 84.63835,-17.762718 67.72715,-2.316001 227.96966,-9.986861 240.67806,34.544706 z M 482.25675,28.689165 c 64.60957,7.226367 126.3557,15.752003 129.1952,97.632455 l 0.35165,3.23721 c 8.55371,70.19881 41.05866,112.94967 97.93658,142.88715 3.03874,1.59316 6.24494,2.52043 9.504,3.47948 l 2.09331,0.63298 c 6.14367,1.83275 12.33339,3.39628 18.57674,4.80602 -2.53275,2.67348 -5.21401,2.99405 -8.60264,3.77058 l -2.05257,0.48841 c -2.21135,0.52505 -4.42538,1.04044 -6.63893,1.55512 -1.51774,0.3583 -3.03557,0.71679 -4.55304,1.07647 -3.0142,0.7136 -6.02936,1.42454 -9.04499,2.13144 -111.04453,24.6578 -209.03621,56.6983 -293.60983,71.25017 l -2.30057,0.39658 c -47.45873,8.15897 -94.77806,-1.35841 -137.94408,-23.41467 -2.6971,-1.37285 -5.40811,-2.71123 -8.12144,-4.04799 -19.9364,-9.88191 -39.0393,-21.04011 -57.80135,-33.20058 0,0 -146.090322,-104.34231 -170.527917,-137.43641 -1.798744,-2.41324 -3.686576,-4.71735 -5.606154,-7.02344 C -39.421966,68.721269 232.98521,4.6194531 482.25675,28.689165 Z m 529.09255,16.172438 2.3764,0.02341 c 31.3279,0.845333 62.6937,13.734336 86.2856,35.423889 l 2.7689,2.485057 c 16.2791,14.914821 28.1446,34.765051 31.3455,57.531531 0.2096,3.18813 0.2583,6.3702 0.2962,9.56515 0.1049,8.82146 2.5781,15.40204 6.3299,23.19779 3.9993,8.56545 5.19,16.37721 5.0417,25.87827 l 0.011,2.98519 c -0.04,5.79917 -0.6306,10.83585 -2.2006,16.39516 -4.2084,-1.3241 -7.6847,-3.09333 -11.4307,-5.50152 -7.1116,-4.56005 -12.4105,-6.54193 -20.7885,-5.50152 -4.6065,2.29861 -7.2986,5.14033 -9.4763,10.00277 -1.2615,7.28924 0.052,12.63155 3.9461,18.72 4.673,6.13954 10.4864,10.38094 16.9016,14.28912 -8.1891,11.90382 -25.3463,18.60849 -38.6951,21.23437 -18.4389,2.85917 -38.6419,1.39266 -57.0149,-1.22885 l -2.4393,-0.33994 c -2.4276,-0.34804 -4.8508,-0.71715 -7.2738,-1.09796 l -2.1562,-0.33408 c -7.034,-1.19406 -14.2259,-2.76681 -19.40225,-8.23078 -3.7105,-5.59804 -3.5623,-10.38033 -2.8428,-17.0047 0.9536,-2.95419 0.9536,-2.95419 2.1692,-5.97431 2.4868,-6.5569 4.2086,-13.14768 5.78745,-20.00358 2.4892,-10.79991 5.1243,-21.50223 8.7729,-31.94437 5.0647,-15.44535 5.5406,-32.31807 5.4359,-48.50169 -0.016,-2.80408 6e-4,-5.60649 0.018,-8.41052 0.014,-11.68301 -0.9458,-22.77525 -3.2316,-34.206717 l -0.6588,-3.299742 c -0.5997,-2.792933 -1.2534,-5.560057 -1.9471,-8.328472 l -0.72,-2.918777 c -1.7351,-6.73178 -3.9281,-13.06322 -6.8389,-19.327612 -1.86315,-4.049409 -2.68545,-7.662937 -3.10185,-12.138113 4.10185,-3.232344 7.77875,-3.50658 12.73375,-3.438452 z M 46.264548,201.4283 c 0.35525,0.009 0.79308,0.04 1.37701,0.0821 2.57566,0.8923 4.09942,1.90399 6.19289,3.70807 l 2.22469,1.90285 c 10.60093,9.66734 21.50778,18.93597 32.54126,28.04292 l 2.21544,1.83448 c 3.50775,2.88641 7.03138,5.70159 10.703352,8.35192 5.70585,4.13312 32.64819,24.52746 35.82462,27.01138 6.95132,5.3136 14.07533,10.27565 21.32154,15.12918 6.40203,4.28854 12.79179,8.57927 19.07094,13.0661 32.06037,22.76903 66.45773,43.35899 102.25086,58.86393 2.02407,0.87835 4.03693,1.77855 6.04849,2.68824 8.93105,3.94232 18.07456,6.83538 27.36821,9.65892 1.58124,0.49706 3.14573,1.05393 4.70295,1.62935 4.51068,1.51361 9.11861,2.5363 13.73684,3.6182 l 2.93541,0.6955 c 2.37713,0.56281 4.75482,1.12279 7.13309,1.68016 v 2.00055 l -1.8064,0.51576 c -3.86215,1.15426 -7.55781,2.29161 -11.10498,4.29807 -3.50057,1.95363 -7.12227,3.39409 -10.83844,4.81383 -6.65803,2.55324 -13.12629,5.47901 -19.60397,8.50235 -14.80334,6.87527 -28.07823,11.07999 -44.36064,11.62821 l -3.64613,0.12503 c -10.71636,0.27354 -21.22636,-0.3367 -31.87682,-1.55512 -2.67412,-0.30538 -5.34933,-0.57661 -8.02705,-0.84398 C 126.12765,397.06908 3.0719476,373.5371 15.708055,265.962 20.20536,232.68531 45.750318,201.41523 46.264618,201.42832 Z M 1121.2699,218.48576 c 1.6605,-0.002 3.3416,0.35666 5.2749,0.86156 2.5239,1.13707 4.7585,2.5991 7.048,4.18866 l 1.9452,1.31676 c 10.1103,7.02709 19.1659,15.58618 28.2362,24.01056 1.3127,1.20783 2.649,2.38591 3.9922,3.55566 1.4214,1.93804 1.4214,1.93804 1.836,5.00139 -0.4146,2.93831 -0.4146,2.93831 -1.3621,4.81383 -3.0864,1.83254 -6.0801,1.75026 -9.4763,1.1253 -3.261,-1.59938 -6.1234,-3.70064 -9.0616,-5.87662 l -2.5024,-1.7876 c -1.6763,-1.1994 -3.3485,-2.4064 -5.0158,-3.62014 -2.1396,-1.54974 -4.2943,-3.06585 -6.4667,-4.56377 -6.4208,-4.42837 -12.7933,-8.91188 -18.649,-14.16015 l -1.6139,-1.44573 c -1.8354,-2.32254 -1.7367,-4.68461 -1.6139,-7.61147 0.385,-1.94585 0.385,-1.94585 2.2803,-4.50905 1.849,-0.93521 3.4885,-1.29736 5.1489,-1.29919 z m -231.75132,63.47261 c 4.81923,-0.0136 9.52438,1.30425 14.23095,3.63382 31.85406,19.17746 53.07362,55.59301 66.40782,90.43514 7.0118,18.07541 15.4291,26.65136 32.24865,34.37279 4.1637,1.77613 8.3464,3.50508 12.5672,5.12447 4.7812,1.90444 7.8039,3.74713 11.1234,7.87912 -2.2011,1.16181 -3.5043,1.13788 -5.9559,1.16048 l -2.5542,0.0293 -2.7874,0.0137 -2.902,0.0176 c -2.0427,0.009 -4.0837,0.0157 -6.1262,0.0195 -3.0489,0.01 -6.09805,0.0404 -9.14675,0.0724 -9.8219,0.0548 -19.4872,-0.24207 -29.2357,-1.57856 l -2.4931,-0.32822 c -6.937,-1.0712 -14.7774,-2.70318 -19.406,-8.65864 -2.0943,-3.32225 -3.8695,-6.82115 -5.682,-10.31926 -6.16092,-11.87091 -13.80927,-21.76841 -22.21357,-31.94242 -11.81616,-14.32067 -21.45927,-29.24963 -30.79782,-45.51257 l -1.71388,-2.97349 c -2.50807,-4.36118 -5.00601,-8.72919 -7.4847,-13.10909 l -1.14019,-2.01228 c -3.10138,-5.73103 -3.80992,-10.29271 -2.92796,-16.91482 1.58982,-3.58684 4.16594,-5.55973 7.1664,-7.87718 2.99876,-1.03595 5.93137,-1.52349 8.82295,-1.53168 z m 68.62687,3.16885 c 1.3766,0.0119 2.7532,0.0725 4.0681,0.0703 l 2.4264,-0.0117 c 2.5989,-0.01 5.1985,-0.0102 7.7975,-0.008 l 2.6745,-0.002 c 12.2685,0.007 24.3186,0.47337 36.51295,1.95954 3.5733,0.38275 7.1532,0.51477 10.7405,0.66815 16.8418,0.82717 33.6448,2.6912 50.224,5.93915 l 2.9483,0.55874 c 11.173,2.32574 22.7099,6.52253 29.9224,16.32092 5.3234,8.85682 7.2432,18.95298 9.2986,29.07053 0.2775,1.33843 0.5557,2.67669 0.8348,4.01478 0.5469,2.62482 1.0899,5.25091 1.6306,7.87718 0.9784,4.69227 2.0079,9.37042 3.0519,14.04686 0.5275,2.49621 0.9633,4.98436 1.3529,7.50793 2.1206,11.3218 6.1042,22.86137 12.4968,32.25891 l 1.7028,2.52412 c 2.3989,2.84641 4.7752,4.44272 7.892,6.35333 5.4993,3.43996 10.9411,6.97669 15.9912,11.12808 v 1.00027 c -12.5069,2.07086 -24.3008,2.66369 -36.8982,0.87525 l -2.2765,-0.27938 c -5.6366,-0.90806 -9.1008,-3.16115 -12.9446,-7.5978 -1.7106,-2.70826 -2.3763,-4.33972 -3.1575,-7.39658 l -0.6849,-2.62572 -0.7181,-2.79375 c -2.9376,-11.13816 -6.4055,-21.93289 -10.5794,-32.6301 -0.7234,-1.91494 -1.4025,-3.8487 -2.0581,-5.79067 -4.1863,-12.25753 -10.1444,-21.07805 -21.3993,-26.85704 -3.7458,-1.61558 -7.5937,-2.33151 -11.5676,-3.05357 l -2.6079,-0.50209 c -6.3397,-1.18458 -12.6951,-2.0973 -19.1005,-2.77811 -4.7122,-0.50447 -4.712,-0.50496 -6.7796,-1.59614 -1.5197,-0.27737 -3.0464,-0.51268 -4.5753,-0.72677 -58.80785,-8.63722 -58.80785,-8.63722 -72.05275,-27.09733 -3.4859,-5.48257 -5.5892,-9.4599 -4.8676,-16.18806 2.4442,-3.87003 6.5717,-4.27511 10.7016,-4.23946 z m -133.09307,8.96341 c 4.45535,-0.10383 8.77168,0.81103 12.82248,3.02818 4.41119,3.99108 6.0667,6.94748 6.63338,13.12864 -0.31537,20.57207 -18.91875,41.56373 -31.20309,56.47653 -1.91515,2.32571 -3.81825,4.66125 -5.71909,6.99999 -0.96591,1.18715 -1.93296,2.37307 -2.9039,3.55568 -2.21925,2.7136 -4.38637,5.44008 -6.43351,8.30111 l -2.12847,2.93831 -1.78788,2.57103 c -6.34027,6.35847 -13.34918,6.78308 -21.72504,6.74406 -13.45652,0.31192 -23.7622,3.60838 -36.02082,9.23887 l -2.89099,1.32654 -2.88359,1.32653 c -36.20741,15.44918 -75.74584,8.93121 -113.70748,11.4563 -6.79069,0.46574 -13.61665,0.84396 -20.28137,-0.77951 14.69253,-25.37721 66.10994,-32.51969 91.31987,-38.2215 18.52326,-4.14559 51.59255,-19.18305 64.44582,-32.11044 0,0 5.94678,-7.27371 8.05481,-9.92071 12.23781,-15.23892 40.34974,-45.49893 64.40887,-46.05961 z m -56.70942,2.21547 2.22473,0.0137 c 1.78542,0.0116 3.57085,0.0296 5.35626,0.0488 -3.40169,3.63034 -6.87085,7.16306 -10.42386,10.62794 -49.37824,68.25743 -126.7328,59.95486 -198.27553,78.15197 -22.75713,5.78836 -26.69143,5.02697 -64.32704,12.81603 -51.13244,12.68975 -90.97082,23.77928 -140.08396,23.87234 -1.93031,0.004 -3.86097,0.0138 -5.79125,0.0234 -32.79474,0.10308 -32.79387,0.10225 -40.69601,-5.45854 -0.17768,-2.62572 -0.17768,-2.62572 0,-5.00138 9.22413,-4.79038 18.49589,-8.82229 28.24364,-12.2651 2.0916,-0.74234 4.17552,-1.50435 6.2595,-2.27017 21.49837,-7.83346 43.81698,-13.20603 66.25596,-17.034 3.27086,-0.56865 6.50947,-1.2406 9.75755,-1.93999 l 3.35369,-0.71895 c 32.47375,-6.29757 64.31612,-15.39172 96.32451,-23.78783 1.6862,-0.44309 3.37215,-0.88527 5.05831,-1.32849 10.52245,-2.7619 21.05586,-5.4719 31.61215,-8.08621 4.65968,-1.15999 9.3133,-2.34522 13.9682,-3.52637 1.99765,-0.50668 3.99532,-1.01334 5.99298,-1.51996 l 3.02981,-0.76779 c 3.09867,-0.78493 6.19739,-1.56813 9.2967,-2.35025 2.04704,-0.51697 4.09407,-1.03405 6.14106,-1.55122 l 3.01499,-0.76192 c 5.42172,-1.37291 10.83151,-2.78334 16.23362,-4.23945 6.08411,-1.624 12.19699,-3.0232 18.35281,-4.30589 5.2491,-1.12045 10.39533,-2.54767 15.56361,-4.0265 6.2256,-1.76861 12.50018,-3.26587 18.79516,-4.73373 2.57182,-0.60508 5.14306,-1.2128 7.71426,-1.82081 l 2.03035,-0.47865 c 7.57623,-1.79284 15.14041,-3.64499 22.70411,-5.49567 11.74243,-2.87171 23.48663,-5.73384 35.24717,-8.52188 l 3.07238,-0.73652 c 8.06545,-1.89861 15.72256,-2.92532 23.99414,-2.82695 z"
     sodipodi:nodetypes="cccccccccscccccccccccccccccccccccscccccccccccccccccccccccccccccccccccccccccccsccccccccccccccccccccccccccccccccccccccccccccccccccccccccccccccccccccccccccccccccccccccccccccccccccccccccccccccccccccccccccccccccsccccccccccccccccccccccccccccccccccccccccccccssccccccccccccccccccccccsscccccccccccccccccccccccccccccccccccssccccccccccccccccsccsscccccccsccccccsscccscccccccccccccccsccc"
     style="fill:#ffffff;fill-opacity:1;stroke:#ffffff;stroke-width:4.47853;stroke-dasharray:none;stroke-opacity:1" />
  <path
     id="path20"
     d="m 1057.2477,173.63472 c -3.7286,0.0122 -7.4597,0.65703 -11.0081,2.00194 -8.5106,3.97877 -14.8665,10.28783 -18.5362,18.91996 -2.886,8.23233 -3.0803,16.97643 0.6233,24.95148 4.607,8.35274 11.4112,14.83458 20.5159,18.06713 8.8325,2.06617 16.5643,1.09054 24.5403,-3.15104 l 2.514,-1.52415 c 2.8771,-1.74086 4.9249,-3.4938 7.0145,-6.13769 6.0412,-8.82865 8.9556,-17.36532 7.0144,-28.05799 -2.7916,-8.56843 -7.4423,-15.10529 -14.9057,-20.16669 -5.35,-3.18597 -11.5581,-4.92332 -17.7724,-4.90295 z m 0,10.76835 c 3.0477,-0.0266 6.1899,0.69137 9.2818,2.13552 3.8536,2.17869 6.2975,3.90121 8.494,7.78171 0.4266,2.97699 0.5073,5.79877 0,8.76812 -1.7536,1.75363 -1.7536,1.75363 -3.8326,2.10298 -3.1378,-0.47558 -3.9208,-1.73229 -5.867,-4.18541 -2.9074,-3.67218 -2.9074,-3.67218 -6.9597,-5.80888 -1.9896,-0.0902 -1.9896,-0.0902 -4.0004,0.2192 l -2.0311,0.2329 c -2.1089,0.36565 -2.1089,0.36565 -4.4902,2.17834 -2.3564,0.1096 -2.3564,0.1096 -4.384,0 -0.6132,-4.44617 -0.6132,-4.44617 0,-7.0145 3.8917,-4.25463 8.7097,-6.3657 13.7892,-6.40998 z"
     style="fill:#ffffff;fill-opacity:1;stroke-width:0.876809" />
</svg>
