<?xml version="1.0" encoding="UTF-8" standalone="no"?>
<svg
   version="1.0"
   width="1602.2751pt"
   height="568.80634pt"
   viewBox="0 0 1602.2751 568.80634"
   preserveAspectRatio="xMidYMid"
   id="svg13"
   sodipodi:docname="logo.svg"
   inkscape:version="1.4.2 (f4327f4, 2025-05-13)"
   xmlns:inkscape="http://www.inkscape.org/namespaces/inkscape"
   xmlns:sodipodi="http://sodipodi.sourceforge.net/DTD/sodipodi-0.dtd"
   xmlns="http://www.w3.org/2000/svg"
   xmlns:svg="http://www.w3.org/2000/svg">
  <defs
     id="defs13" />
  <sodipodi:namedview
     id="namedview13"
     pagecolor="#505050"
     bordercolor="#eeeeee"
     borderopacity="1"
     inkscape:showpageshadow="0"
     inkscape:pageopacity="0"
     inkscape:pagecheckerboard="0"
     inkscape:deskcolor="#505050"
     inkscape:document-units="pt"
     inkscape:zoom="0.43564841"
     inkscape:cx="977.85276"
     inkscape:cy="572.70954"
     inkscape:window-width="1920"
     inkscape:window-height="991"
     inkscape:window-x="-9"
     inkscape:window-y="-9"
     inkscape:window-maximized="1"
     inkscape:current-layer="svg13" />
  <g
     transform="matrix(0.1,0,0,-0.1,-25.144021,722.90086)"
     fill="#000000"
     stroke="none"
     id="g13"
     style="fill:#ffffff;fill-opacity:1">
    <path
       d="M 4240,7210 C 3657.1717,7159.5188 1860.0536,6849.175 1110,6553 569,6339 307,6117 258,5831 c -10,-60 -9,-80 6,-144 37,-160 198,-431 433,-728 l 52,-66 -41,-39 C 526,4678 385,4405 330,4123 c -43,-225 -46,-584 -5,-818 51,-294 188,-565 359,-707 308,-258 1137,-578 1907,-737 169,-35 450,-74 695,-96 185,-16 592,-20 759,-6 95,8 103,7 170,-19 134,-53 367,-116 529,-144 157,-27 432,-39 781,-33 637,10 907,68 1360,292 234,115 258,124 675,254 285,88 518,156 940,271 299,82 644,180 1052,300 113,33 508,159 556,177 51,20 -78,-113 -146,-150 -70,-38 -227,-83 -722,-206 -600,-148 -748,-201 -952,-337 -127,-85 -222,-180 -260,-260 -68,-145 -16,-282 122,-322 53,-16 1331,-26 1445,-12 196,24 360,79 655,220 179,86 170,84 448,110 176,17 286,64 391,169 31,31 106,117 166,191 279,341 411,529 548,778 l 35,64 48,-77 c 238,-372 294,-451 463,-650 142,-166 208,-260 294,-416 40,-74 86,-154 102,-179 43,-68 131,-147 199,-179 114,-54 136,-56 707,-56 h 526 l 49,30 c 68,42 99,100 98,181 -1,120 -90,223 -269,309 -49,24 -142,68 -205,98 -131,63 -211,128 -253,205 -25,45 -135,303 -176,410 -15,41 -15,44 2,56 14,11 29,11 85,0 101,-20 548,-98 802,-139 291,-47 314,-60 388,-210 37,-74 117,-311 187,-550 29,-99 59,-197 68,-217 23,-55 91,-123 150,-149 52,-24 52,-24 519,-27 518,-3 509,-4 548,61 30,48 27,139 -6,205 -33,66 -91,117 -229,200 -233,140 -261,198 -380,772 -50,242 -98,424 -134,511 -40,96 -120,200 -201,262 -36,27 -66,52 -67,56 -2,3 34,21 80,38 103,41 223,109 316,179 40,30 77,54 82,54 5,0 79,-41 163,-90 188,-110 271,-150 311,-150 40,0 114,38 138,71 45,62 41,182 -10,268 -36,62 -141,171 -235,242 -42,33 -79,63 -82,67 -3,4 4,40 14,80 66,252 49,498 -52,727 -38,85 -40,97 -48,230 -23,384 -204,716 -545,1003 -175,148 -460,310 -659,377 -273,91 -572,125 -816,94 l -87,-11 -54,35 c -117,77 -665,232 -1048,297 -551,92 -1526,123 -2401,74 -445,-24 -698,-44 -768,-59 -273,-58 -566,-228 -791,-459 -56,-59 -104,-106 -106,-106 -1,0 -34,19 -71,42 -209,127 -583,279 -971,393 -476,141 -904,190 -1873,215 -596,15 -1156,11 -1400,-10 z m 2205,-274 c 575,-47 1064,-166 1570,-383 83,-35 195,-87 250,-116 77.2888,-65.2992 138.9766,-136.5988 112,-242 31,-508 51,-678 108,-900 130,-506 310,-830 605,-1092 220,-195 499,-338 931,-478 95,-30 178,-55 186,-55 7,0 13,-4 13,-8 0,-9 7,-8 -550,-132 -355,-80 -923,-209 -1560,-356 -107,-25 -391,-95 -630,-156 -1033,-262 -1317,-329 -1625,-382 -428,-74 -650,-73 -1023,4 -620,127 -1298,437 -2170,993 -301,191 -763,525 -1029,744 C 1097,4816 595.13325,5330.1734 483.13325,5627.1734 378.99844,5915.0755 654.79564,6135.0163 1308,6369 c 430,153 919,262 2002,445 439,74 599,95 834,107 110,6 242,17 295,24 144,21 1724,13 2006,-9 z m 5420,-15 c 651,-44 1018,-102 1380,-218 242,-77 308,-128 395,-308 85,-176 143,-386 176,-635 20,-157 14,-528 -10,-660 -76,-399 -270,-903 -410,-1066 -51,-59 -137,-113 -224,-141 -80,-25 -278,-43 -407,-36 -278,14 -426,31 -562,64 -127,30 -175,15 -343,-110 -107,-80 -217,-136 -340,-177 -77,-25 -99,-28 -230,-28 -139,-1 -149,0 -240,32 -52,18 -150,62 -218,97 -113,59 -145,70 -390,135 -491,131 -662,189 -874,297 -317,161 -536,398 -688,743 -66,150 -118,302 -160,470 -65,258 -73,320 -74,565 -1,215 0,222 25,287 71,181 213,331 436,457 272,154 588,213 1288,240 286,12 1264,6 1470,-8 z m 2290,-341 c 271,-30 525,-118 764,-264 266,-162 457,-359 575,-594 81,-160 105,-261 106,-432 1,-132 2,-137 63,-275 52,-117 68,-185 74,-320 4,-88 1,-140 -11,-194 -8,-41 -18,-76 -20,-79 -3,-2 -48,23 -100,57 -133,86 -178,104 -256,105 -131,1 -222,-87 -224,-214 -1,-104 59,-187 217,-298 43,-30 76,-59 74,-66 -2,-6 -41,-37 -88,-68 -247,-169 -547,-218 -1049,-173 -424,38 -542,71 -590,164 -32,64 -26,101 39,241 137,291 265,706 302,980 18,126 18,508 1,630 -33,231 -102,483 -182,664 -27,60 -47,112 -45,114 3,3 26,11 52,18 59,16 178,17 298,4 z M 1005,4629 c 454,-460 1357,-1117 2176,-1582 509,-288 1100,-526 1534,-617 55,-12 107,-24 115,-26 8,-3 -37,-27 -100,-53 -63,-27 -214,-93 -335,-148 -327,-150 -435,-184 -630,-203 -485,-46 -1263,79 -1960,313 -326,110 -786,316 -920,411 -244,175 -357,456 -372,927 -4,107 -1,220 6,290 12,118 49,289 62,289 4,0 32,-45 63,-100 123,-216 306,-449 531,-676 443,-446 958,-799 1501,-1027 219,-92 300,-108 329,-63 20,31 9,62 -42,111 -59,58 -130,102 -404,255 -273,152 -390,224 -594,364 -468,321 -830,684 -1130,1136 -67,102 -128,196 -135,209 -11,21 -7,30 35,92 48,70 156,179 178,179 7,0 48,-36 92,-81 z m 14468,-220 c 63,-32 168,-102 302,-203 260,-194 307,-253 254,-320 -16,-21 -29,-26 -63,-26 -47,0 -62,8 -356,200 -279,181 -310,209 -312,270 -3,84 86,124 175,79 z m -3139,-813 c 121,-46 275,-164 446,-343 216,-225 365,-464 504,-808 32,-77 69,-160 83,-185 78,-135 211,-231 453,-325 168,-66 257,-122 233,-146 -24,-24 -247,-33 -545,-21 -315,13 -376,21 -448,57 -65,33 -107,83 -179,216 -86,156 -173,285 -273,403 -226,267 -322,401 -475,661 -132,224 -138,239 -138,326 0,75 1,79 35,115 74,78 182,95 304,50 z m 1277,-26 c 343,-18 868,-70 1114,-111 276,-45 378,-101 458,-247 37,-68 67,-180 142,-526 79,-367 104,-456 156,-557 53,-102 127,-174 266,-261 63,-38 127,-81 141,-93 l 27,-23 -40,-8 c -64,-12 -412,-9 -500,5 -44,7 -104,24 -133,37 -66,32 -90,72 -132,219 -105,364 -178,574 -235,671 -60,102 -145,173 -249,208 -27,9 -211,43 -410,76 -775,127 -976,183 -1079,301 -115,130 -148,205 -111,257 27,39 55,47 189,53 72,3 144,6 161,7 17,1 123,-3 235,-8 z m -2931,-124 c -81,-75 -244,-208 -276,-224 -54,-27 -333,-128 -554,-200 -231,-75 -543,-167 -1129,-331 -843,-238 -1399,-404 -1579,-472 -56,-21 -175,-73 -265,-115 -389,-182 -550,-233 -870,-274 -264,-34 -581,-45 -859,-32 -356,18 -554,52 -663,116 l -48,29 39,23 c 58,35 272,130 393,174 236,87 547,166 966,246 376,71 547,111 1330,308 700,177 1130,283 1510,371 1362,318 1723,391 1930,394 76,1 87,-1 75,-13 z m 796,-25 c 108,-49 130,-166 62,-330 -31,-74 -197,-333 -274,-426 -22,-28 -78,-97 -124,-155 -265,-334 -294,-353 -535,-370 -72,-5 -166,-19 -208,-30 -76,-19 -109,-32 -383,-158 -286,-131 -398,-152 -804,-151 -466,1 -929,14 -941,26 -23,23 149,150 295,218 125,59 242,96 506,161 851,209 896,222 1021,284 91,46 159,110 295,277 287,352 477,514 710,607 165,65 302,82 380,47 z"
       id="path1"
       sodipodi:nodetypes="cccccccccccccccccccccccccccccsccccccccsccccccccccccccccscccccccscscccsccccccccccccscccccccccccssccccccccccccccccccccccccccccccccccccccccccccccccccccccccscccccccccccccsccccccccccsccccsccccccccscccccscccccccccccsccccccccsccscccccccccccccccccccccccscccccc"
       style="fill:#ffffff;fill-opacity:1" />
    <path
       d="m 4918,6629 c -14,-5 -29,-17 -32,-26 -8,-20 -35,-630 -51,-1173 -15,-474 -42,-819 -105,-1335 -82,-665 -97,-893 -60,-929 27,-27 72,-30 97,-7 34,33 51,106 83,371 17,135 43,351 60,480 16,129 32,255 35,280 3,25 8,61 11,80 l 5,36 92,-4 c 51,-2 135,1 187,8 52,6 131,14 176,17 l 81,6 7,-39 c 64,-374 88,-659 85,-1028 l -3,-309 25,-19 c 31,-26 86,-18 116,16 11,14 27,49 34,78 18,80 21,519 4,728 -71,870 -345,1962 -658,2621 -29,63 -63,122 -74,132 -25,22 -79,30 -115,16 z m 257,-854 c 86,-267 129,-421 186,-665 48,-206 99,-449 99,-470 0,-12 -26,-20 -117,-33 -118,-17 -363,-24 -363,-9 0,4 7,79 15,167 7,88 19,282 24,430 12,301 28,646 37,805 l 6,104 19,-49 c 11,-28 53,-153 94,-280 z"
       id="path2"
       style="fill:#ffffff;fill-opacity:1" />
    <path
       d="m 4300,5705 c 0,-453 -12,-1072 -27,-1415 -6,-151 -8,-168 -16,-120 -127,801 -267,1465 -379,1795 -17,50 -66,175 -110,278 -98,231 -143.1764,286.9607 -166.1764,227.9607 C 3589.8236,6440.9607 3571,6208 3590,5915 c 37,-555 41,-652 41,-965 0,-228 -5,-388 -20,-579 -12,-146 -23,-266 -25,-268 -1,-2 -11,56 -20,129 -21,157 -73,440 -122,660 -135,610 -336,1129 -519,1343 -392.8757,474.7621 -121.8272,-84.2124 -17,-320 285,-639 443,-1272 541,-2165 30,-269 24,-247 84,-276 29,-13 59,-24 68,-24 30,0 50,38 80,156 88,348 132,829 133,1452 1,205 4,364 8,355 11,-25 102,-432 132,-588 85,-441 142,-824 206,-1395 19,-167 29,-186 116,-204 58,-13 71,16 104,230 67,440 104,1180 112,2229 17.2567,218.4385 2.652,381.6995 -40,590 -154.9838,856.9975 -151.3012,-330.2411 -152,-570 z"
       id="path3"
       sodipodi:nodetypes="sccccccsccccccccscccccccccs"
       style="fill:#ffffff;fill-opacity:1" />
    <path
       d="m 5700,6595 c -18,-21 -10,-95 44,-415 179,-1055 250,-1763 275,-2730 8,-324 14,-349 78,-350 56,0 82,98 94,360 13,309 -11,774 -76,1475 -18,189 -15,168 -61,510 -19,149 -41,317 -49,375 -7,58 -12,106 -10,108 5,5 285,-562 355,-718 28,-63 59,-123 67,-132 11,-12 31,-18 59,-18 50,0 75,24 92,92 20,76 141,630 158,726 9,51 18,91 20,89 13,-12 89,-632 114,-927 38,-451 43,-595 44,-1156 1,-605 0,-594 53,-594 108,0 128,128 128,805 -1,449 -9,625 -51,1090 -28,321 -99,834 -159,1160 -43,233 -60,265 -137,265 -74,0 -70,12 -183,-618 -51,-284 -101,-541 -106,-547 -3,-2 -60,116 -129,263 -190,405 -405,799 -476,870 -28,27 -39,32 -82,32 -32,0 -54,-5 -62,-15 z"
       id="path4"
       style="fill:#ffffff;fill-opacity:1" />
    <path
       d="m 7178,6554 c -14,-13 -9,-63 27,-304 126,-831 185,-1584 185,-2363 0,-433 3,-460 53,-472 55,-14 88,29 109,141 14,77 19,973 6,1144 l -8,95 69,32 c 200,94 339,273 408,528 23,88 27,119 27,250 0,125 -3,165 -23,239 -32,122 -77,227 -138,316 -120,178 -274,294 -488,365 -79,27 -213,44 -227,29 z m 299,-264 c 146,-71 288,-234 343,-395 113,-326 14,-701 -226,-860 -30,-20 -57,-35 -58,-33 -2,1 -13,120 -25,263 -30,356 -98,917 -126,1043 -3,12 -2,22 2,22 3,0 44,-18 90,-40 z"
       id="path5"
       style="fill:#ffffff;fill-opacity:1" />
    <path
       d="m 1865,6265 c -166,-37 -304,-122 -395,-244 -67,-90 -95,-166 -94,-261 1,-97 28,-166 97,-251 82,-99 180,-151 434,-235 434,-142 716,-326 892,-583 143,-209 194,-405 131,-508 -22,-37 -93,-73 -142,-73 -47,0 -148,32 -225,73 -93,48 -221,155 -309,258 -669.679,679.1595 -146.382,-99.618 -25,-221 112,-112 179,-162 301,-221 105,-51 181,-72 270,-71 255,0 402,223 330,502 -60,236 -272,526 -519,710 -108,81 -330,206 -461,260 -41,17 -134,51 -207,75 -150,50 -233,90 -281,134 -38,36 -72,103 -72,146 0,71 84,187 175,240 56,33 179,72 250,80 80,9 260.3868,-0.9133 353.3868,-44.9133 155.5534,-71.0572 219.8209,-166.5047 270.6468,-138.2536 24,96 -282.0336,333.1669 -454.0336,374.1669 -74,17 -240,17 -320,-1 z"
       id="path6"
       sodipodi:nodetypes="cccccccsccscccccccscccccc"
       style="fill:#ffffff;fill-opacity:1" />
    <path
       d="m 11394,6645 c -85,-90 -178,-591 -215,-1152 -30,-466 38,-1100 137,-1269 29,-49 49,-56 60,-21 12,36 7,230 -10,392 -23,219 -36,449 -36,621 v 151 l 53,7 c 94,11 237,7 242,-6 5,-16 50,-556 65,-793 13,-198 22,-260 47,-335 33,-99 72,-69 94,72 14,91 6,476 -16,738 -63,759 -124,1194 -202,1440 -30,94 -43,122 -73,153 -52,51 -99,52 -146,2 z m 110,-360 c 31,-155 58,-330 86,-560 27,-232 33,-208 -52,-201 -40,4 -100,2 -133,-3 -33,-5 -62,-7 -64,-5 -6,5 26,335 45,474 21,157 77,441 84,433 4,-5 19,-66 34,-138 z"
       id="path7"
       style="fill:#ffffff;fill-opacity:1" />
    <path
       d="m 11958,6658 c -19,-19 -20,-29 -15,-107 4,-47 11,-126 16,-176 37,-335 81,-1400 81,-1937 0,-211 1,-218 22,-238 32,-30 76,-25 166,20 222,111 408,416 496,811 35,157 48,296 48,484 -3,598 -239,1019 -637,1133 -110,32 -153,34 -177,10 z m 236,-207 c 337,-162 497,-738 375,-1356 -53,-268 -166,-511 -300,-642 -29,-29 -57,-53 -61,-53 -4,0 -8,75 -8,168 -1,529 -37,1397 -76,1840 -4,39 -4,72 1,72 4,0 35,-13 69,-29 z"
       id="path8"
       style="fill:#ffffff;fill-opacity:1" />
    <path
       d="m 10034,6650 c -17,-11 -45,-46 -62,-78 -157,-298 -187,-1004 -67,-1597 64,-316 174,-632 266,-759 26,-37 124,-116 144,-116 14,0 1,65 -29,150 -154,428 -192,557 -240,825 -40,220 -56,391 -56,620 0,306 34,557 110,795 32,103 36,131 20,161 -14,24 -47,24 -86,-1 z"
       id="path9"
       style="fill:#ffffff;fill-opacity:1" />
    <path
       d="m 10740,6653 c -92,-32 -204,-122 -271,-220 -47,-67 -105,-191 -137,-293 -107,-338 -106,-841 4,-1274 107,-427 318,-741 556,-831 138,-52 267,34 268,178 0,60 -52,197 -91,241 -42,47 -53,28 -59,-108 -6,-126 -15,-146 -64,-146 -78,0 -212,131 -293,287 -73,139 -109,236 -153,408 -108,424 -106,924 5,1235 80,222 201,358 326,363 55,2 77,-23 90,-103 17,-96 31,-108 74,-62 33,35 65,121 65,175 0,125 -168,204 -320,150 z"
       id="path10"
       style="fill:#ffffff;fill-opacity:1" />
    <path
       d="m 9410,6594 c -86,-23 -157,-63 -231,-132 -314,-291 -365,-858 -123,-1368 118,-249 340,-473 578,-585 87,-41 162,-60 191,-49 27,10 36,48 20,87 -16,38 -37,54 -126,101 -242,125 -398,281 -509,507 -103,210 -146,408 -137,629 6,155 35,267 100,390 77,145 209,246 322,246 71,0 93,-24 103,-114 13,-107 43,-114 94,-20 80,145 39,269 -101,308 -69,19 -108,19 -181,0 z"
       id="path11"
       style="fill:#ffffff;fill-opacity:1" />
    <path
       d="m 13133,6522 c -93,-86 -155,-364 -223,-1002 -17,-157 -49,-427 -71,-600 -70,-550 -79,-624 -79,-668 0,-125 98,-140 131,-20 22,85 38,177 78,453 31,210 81,591 81,610 0,7 178,12 234,8 l 69,-6 -7,-106 c -15,-235 -60,-514 -132,-805 -38,-156 -41,-192 -18,-224 72,-104 183,162 264,633 72,424 64,912 -21,1315 -44,209 -110,376 -165,419 -40,32 -104,29 -141,-7 z m 90,-214 c 3,-13 16,-66 30,-118 45,-171 76,-400 90,-668 3,-40 2,-74 -2,-76 -3,-2 -38,0 -76,5 -39,4 -99,4 -133,0 -35,-4 -64,-5 -66,-2 -5,10 41,399 63,531 25,147 72,350 82,350 4,0 9,-10 12,-22 z"
       id="path12"
       style="fill:#ffffff;fill-opacity:1" />
    <path
       d="m 14436,4919 c -115,-27 -248,-136 -303,-249 -192,-394 222,-807 610,-609 23,12 69,48 103,81 165,158 189,399 61,590 -102,153 -293,229 -471,187 z m 209,-173 c 64,-30 101,-65 125,-118 25,-55 25,-89 -1,-122 -32,-41 -74,-36 -98,12 -59,114 -161,133 -288,52 -19,-13 -24,-12 -43,5 -54,49 18,152 130,186 51,15 124,9 175,-15 z"
       id="path13"
       style="fill:#ffffff;fill-opacity:1" />
  </g>
</svg>
